<mxfile host="app.diagrams.net" modified="2024-01-24T02:35:33.566Z" agent="Mozilla/5.0 (X11; CrOS x86_64 14541.0.0) AppleWebKit/537.36 (KHTML, like Gecko) Chrome/118.0.0.0 Safari/537.36" etag="s8izKZIm-f9_Ju2P1xpE" version="21.8.2" type="github">
  <diagram name="Page-1" id="Pyt6DiE5ib-owKjVgZIh">
    <mxGraphModel dx="978" dy="523" grid="1" gridSize="10" guides="1" tooltips="1" connect="1" arrows="1" fold="1" page="1" pageScale="1" pageWidth="827" pageHeight="1169" math="0" shadow="0">
      <root>
        <mxCell id="0" />
        <mxCell id="1" parent="0" />
        <mxCell id="rqrlcuI72xvxH0P-dETu-42" style="edgeStyle=orthogonalEdgeStyle;rounded=0;orthogonalLoop=1;jettySize=auto;html=1;entryX=0;entryY=0.5;entryDx=0;entryDy=0;" edge="1" parent="1" source="rqrlcuI72xvxH0P-dETu-33" target="rqrlcuI72xvxH0P-dETu-27">
          <mxGeometry relative="1" as="geometry">
            <Array as="points">
              <mxPoint x="330" y="220" />
              <mxPoint x="30" y="220" />
              <mxPoint x="30" y="555" />
            </Array>
          </mxGeometry>
        </mxCell>
        <mxCell id="rqrlcuI72xvxH0P-dETu-3" value="" style="edgeStyle=orthogonalEdgeStyle;rounded=0;orthogonalLoop=1;jettySize=auto;html=1;" edge="1" parent="1" source="rqrlcuI72xvxH0P-dETu-1" target="rqrlcuI72xvxH0P-dETu-2">
          <mxGeometry relative="1" as="geometry" />
        </mxCell>
        <mxCell id="rqrlcuI72xvxH0P-dETu-1" value="" style="rounded=1;whiteSpace=wrap;html=1;" vertex="1" parent="1">
          <mxGeometry x="70" y="130" width="120" height="60" as="geometry" />
        </mxCell>
        <mxCell id="rqrlcuI72xvxH0P-dETu-9" value="" style="edgeStyle=orthogonalEdgeStyle;rounded=0;orthogonalLoop=1;jettySize=auto;html=1;" edge="1" parent="1" source="rqrlcuI72xvxH0P-dETu-2" target="rqrlcuI72xvxH0P-dETu-8">
          <mxGeometry relative="1" as="geometry" />
        </mxCell>
        <mxCell id="rqrlcuI72xvxH0P-dETu-2" value="" style="rounded=1;whiteSpace=wrap;html=1;" vertex="1" parent="1">
          <mxGeometry x="270" y="130" width="120" height="60" as="geometry" />
        </mxCell>
        <mxCell id="rqrlcuI72xvxH0P-dETu-6" value="user" style="text;html=1;strokeColor=none;fillColor=none;align=center;verticalAlign=middle;whiteSpace=wrap;rounded=0;" vertex="1" parent="1">
          <mxGeometry x="100" y="145" width="60" height="30" as="geometry" />
        </mxCell>
        <mxCell id="rqrlcuI72xvxH0P-dETu-7" value="mengunjungi perpustakaan" style="text;html=1;strokeColor=none;fillColor=none;align=center;verticalAlign=middle;whiteSpace=wrap;rounded=0;" vertex="1" parent="1">
          <mxGeometry x="300" y="145" width="60" height="30" as="geometry" />
        </mxCell>
        <mxCell id="rqrlcuI72xvxH0P-dETu-12" value="" style="edgeStyle=orthogonalEdgeStyle;rounded=0;orthogonalLoop=1;jettySize=auto;html=1;" edge="1" parent="1" source="rqrlcuI72xvxH0P-dETu-8" target="rqrlcuI72xvxH0P-dETu-11">
          <mxGeometry relative="1" as="geometry" />
        </mxCell>
        <mxCell id="rqrlcuI72xvxH0P-dETu-8" value="" style="rounded=1;whiteSpace=wrap;html=1;" vertex="1" parent="1">
          <mxGeometry x="470" y="130" width="120" height="60" as="geometry" />
        </mxCell>
        <mxCell id="rqrlcuI72xvxH0P-dETu-10" value="mengisi daftar pengunjung" style="text;html=1;strokeColor=none;fillColor=none;align=center;verticalAlign=middle;whiteSpace=wrap;rounded=0;" vertex="1" parent="1">
          <mxGeometry x="500" y="145" width="60" height="30" as="geometry" />
        </mxCell>
        <mxCell id="rqrlcuI72xvxH0P-dETu-32" value="" style="edgeStyle=orthogonalEdgeStyle;rounded=0;orthogonalLoop=1;jettySize=auto;html=1;" edge="1" parent="1" source="rqrlcuI72xvxH0P-dETu-11" target="rqrlcuI72xvxH0P-dETu-31">
          <mxGeometry relative="1" as="geometry" />
        </mxCell>
        <mxCell id="rqrlcuI72xvxH0P-dETu-41" style="edgeStyle=orthogonalEdgeStyle;rounded=0;orthogonalLoop=1;jettySize=auto;html=1;entryX=1;entryY=0.5;entryDx=0;entryDy=0;" edge="1" parent="1" source="rqrlcuI72xvxH0P-dETu-11" target="rqrlcuI72xvxH0P-dETu-37">
          <mxGeometry relative="1" as="geometry">
            <Array as="points">
              <mxPoint x="530" y="430" />
            </Array>
          </mxGeometry>
        </mxCell>
        <mxCell id="rqrlcuI72xvxH0P-dETu-11" value="" style="rounded=1;whiteSpace=wrap;html=1;" vertex="1" parent="1">
          <mxGeometry x="470" y="255" width="120" height="60" as="geometry" />
        </mxCell>
        <mxCell id="rqrlcuI72xvxH0P-dETu-13" value="kirim" style="text;html=1;strokeColor=none;fillColor=none;align=center;verticalAlign=middle;whiteSpace=wrap;rounded=0;" vertex="1" parent="1">
          <mxGeometry x="500" y="270" width="60" height="30" as="geometry" />
        </mxCell>
        <mxCell id="rqrlcuI72xvxH0P-dETu-27" value="" style="ellipse;whiteSpace=wrap;html=1;rounded=1;" vertex="1" parent="1">
          <mxGeometry x="90" y="515" width="80" height="80" as="geometry" />
        </mxCell>
        <mxCell id="rqrlcuI72xvxH0P-dETu-29" value="keluar" style="text;html=1;strokeColor=none;fillColor=none;align=center;verticalAlign=middle;whiteSpace=wrap;rounded=0;" vertex="1" parent="1">
          <mxGeometry x="100" y="540" width="60" height="30" as="geometry" />
        </mxCell>
        <mxCell id="rqrlcuI72xvxH0P-dETu-35" value="" style="edgeStyle=orthogonalEdgeStyle;rounded=0;orthogonalLoop=1;jettySize=auto;html=1;" edge="1" parent="1" source="rqrlcuI72xvxH0P-dETu-31" target="rqrlcuI72xvxH0P-dETu-34">
          <mxGeometry relative="1" as="geometry" />
        </mxCell>
        <mxCell id="rqrlcuI72xvxH0P-dETu-31" value="" style="rounded=1;whiteSpace=wrap;html=1;" vertex="1" parent="1">
          <mxGeometry x="270" y="255" width="120" height="60" as="geometry" />
        </mxCell>
        <mxCell id="rqrlcuI72xvxH0P-dETu-33" value="masuk tampilan home" style="text;html=1;strokeColor=none;fillColor=none;align=center;verticalAlign=middle;whiteSpace=wrap;rounded=0;" vertex="1" parent="1">
          <mxGeometry x="300" y="270" width="60" height="30" as="geometry" />
        </mxCell>
        <mxCell id="rqrlcuI72xvxH0P-dETu-45" style="edgeStyle=orthogonalEdgeStyle;rounded=0;orthogonalLoop=1;jettySize=auto;html=1;exitX=0.5;exitY=1;exitDx=0;exitDy=0;entryX=0.25;entryY=1;entryDx=0;entryDy=0;" edge="1" parent="1" source="rqrlcuI72xvxH0P-dETu-34" target="rqrlcuI72xvxH0P-dETu-11">
          <mxGeometry relative="1" as="geometry">
            <mxPoint x="480" y="360" as="targetPoint" />
          </mxGeometry>
        </mxCell>
        <mxCell id="rqrlcuI72xvxH0P-dETu-34" value="" style="rounded=1;whiteSpace=wrap;html=1;" vertex="1" parent="1">
          <mxGeometry x="70" y="255" width="120" height="60" as="geometry" />
        </mxCell>
        <mxCell id="rqrlcuI72xvxH0P-dETu-16" value="mencari buku" style="text;html=1;strokeColor=none;fillColor=none;align=center;verticalAlign=middle;whiteSpace=wrap;rounded=0;" vertex="1" parent="1">
          <mxGeometry x="100" y="270" width="60" height="30" as="geometry" />
        </mxCell>
        <mxCell id="rqrlcuI72xvxH0P-dETu-46" style="edgeStyle=orthogonalEdgeStyle;rounded=0;orthogonalLoop=1;jettySize=auto;html=1;exitX=0;exitY=0.5;exitDx=0;exitDy=0;entryX=0.5;entryY=0;entryDx=0;entryDy=0;" edge="1" parent="1" source="rqrlcuI72xvxH0P-dETu-37" target="rqrlcuI72xvxH0P-dETu-27">
          <mxGeometry relative="1" as="geometry" />
        </mxCell>
        <mxCell id="rqrlcuI72xvxH0P-dETu-37" value="" style="rounded=1;whiteSpace=wrap;html=1;" vertex="1" parent="1">
          <mxGeometry x="270" y="400" width="120" height="60" as="geometry" />
        </mxCell>
        <mxCell id="rqrlcuI72xvxH0P-dETu-39" value="riwayat pengunjung" style="text;html=1;strokeColor=none;fillColor=none;align=center;verticalAlign=middle;whiteSpace=wrap;rounded=0;" vertex="1" parent="1">
          <mxGeometry x="300" y="415" width="60" height="30" as="geometry" />
        </mxCell>
      </root>
    </mxGraphModel>
  </diagram>
</mxfile>
